<?xml version="1.0" encoding="UTF-8"?>
<svg width="752pt" height="752pt" version="1.1" viewBox="0 0 752 752" xmlns="http://www.w3.org/2000/svg">
 <g>
  <path d="m453.7 416.55c-10.609-69.352-18.668-141.07-30.703-210.15-0.51953-2.9609-5.3945-5.1797-8.1016-4.9883-36.391 2.6562-72.777 7.9688-108.46 14.156-39.398 6.8164-78.797 13.633-118.2 20.453-7.207 1.2422-7.5273 6.5859-7.3398 8.0859 7.2461 58.414 16.281 105.16 25.375 163.34 4.7344 30.434 15.656 128.51 21.461 137.63 4.3516 6.8828 10.789 5.6016 18.027 4.9883 60.234-5.1211 120.51-14.578 180.08-24.738 14.754-2.5156 42.918 0.53125 41.504-17.797-1.8555-24.234-9.2773-62.387-13.648-90.98zm-176.67 120.39c-4.6172 0.50391-34.453 4.625-38.203 1.6875-3.0781-2.4141-39.219-225.51-49.098-289.4-0.46875-2.9258 1.5156-5.6797 4.4375-6.1641 29.297-4.9492 174.32-31.324 215.56-32.469 2.9961-0.070312 5.5938 2.0625 6.1094 5.0156 11.965 65.613 18.055 135.55 28.117 201.31 2.6406 17.266 5.2148 34.531 7.7344 51.797 0.94531 6.4766 1.8828 12.953 2.8125 19.426 0.4375 3.0703 0.87891 9.9961 1.3164 15.289 0.28906 3.3633-1.9922 6.4102-5.3047 7.0859-8.2578 1.6719-117.11 20.254-173.48 26.426z"/>
  <path d="m401.06 252.77c1.2266-1.5703 2.4414-3.1445 3.7734-4.668 4.625-4.2031-2.7227-11.508-6.7852-6.8438-1.4805 1.7031-2.9609 3.4648-4.3516 5.2383l-0.10937-0.066406c-9.043-4.9727-30.059-6.8828-29.852 7.3984-5.043 8.4648-5.1992 18.973-0.41016 27.578 3.7109 6.3555 10.215 10.574 17.527 11.367 7.3164 0.79688 14.574-1.9258 19.562-7.332 3.9531-4.4922 6.1875-10.238 6.3086-16.219 0.11719-5.9805-1.8906-11.812-5.6641-16.453zm-7.1953 29.992c-16.449 14.223-33.41-9.9297-27.148-25.707 0.39844-0.21094 0.72656-0.53516 0.94141-0.93359 4.5586-9.0352 13.984-8.7852 21.562-4.0977-2.7891 3.9609-5.3359 8.0898-7.625 12.363-1.3555-1.7422-2.8398-3.3789-4.4375-4.9062-2.0586-1.9258-6.2617-0.089844-5.1289 2.9609 1.7227 4.625 4.1523 8.9375 6.2891 13.379 0.87109 1.4453 2.4336 2.332 4.1211 2.332s3.2539-0.88672 4.125-2.332c3.2852-5.7422 6.6602-11.262 10.262-16.605 2.7695 3.5 4.0156 7.9648 3.4609 12.395-0.55859 4.4297-2.8711 8.4453-6.4219 11.152z"/>
  <path d="m337.13 262.14c-39.285 4.9102-78.242 12.199-116.65 21.824-0.53906 0.14062-0.45312 1.0664 0.13281 1.0078v-0.003906c39.352-3.9805 78.426-10.348 117.01-19.066 2.0547-0.46094 1.6797-4.0352-0.49219-3.7617z"/>
  <path d="m345.66 280.4c-42.473 3.6992-85.215 13.992-126.86 22.863-2.2188 0.47266-1.3086 3.8906 0.93359 3.4492 41.906-8.3906 84.742-13.461 126.39-22.805 1.8906-0.40234 1.5352-3.6797-0.46094-3.5078z"/>
  <path d="m414.26 319.16c1.2227-1.5703 2.4414-3.1367 3.7734-4.6602 4.625-4.2109-2.7227-11.516-6.7852-6.8516-1.4805 1.7109-2.9609 3.4648-4.3516 5.2461l-0.10938-0.074219c-9.0508-4.9727-30.066-6.8828-29.852 7.3984-5.0508 8.457-5.207 18.969-0.40625 27.57 3.707 6.3594 10.211 10.578 17.527 11.375 7.3125 0.79297 14.574-1.9297 19.559-7.3398 3.9531-4.4883 6.1875-10.234 6.3047-16.215 0.11719-5.9805-1.8867-11.809-5.6602-16.449zm-7.918 28.984c-15.363 13.281-31.195-9.2734-25.352-24.004 0.37109-0.19922 0.67578-0.50391 0.875-0.875 1.8711-3.5156 5.2344-6 9.1523-6.7422 3.9141-0.74609 7.957 0.32422 10.988 2.9102-2.6055 3.7031-4.9844 7.5586-7.1172 11.551-1.2656-1.6211-2.6484-3.1523-4.1289-4.5781-1.9258-1.7969-5.8477-0.082031-4.7891 2.7617 1.6055 4.3203 3.8711 8.3477 5.8672 12.492v-0.003906c0.8125 1.3516 2.2734 2.1797 3.8477 2.1797 1.5781 0 3.0391-0.82812 3.8477-2.1797 3.0781-5.3555 6.1992-10.516 9.6211-15.539 2.5898 3.2773 3.7539 7.4609 3.2266 11.605-0.53125 4.1445-2.707 7.9023-6.0391 10.422z"/>
  <path d="m350.33 328.53c-39.289 4.9102-78.242 12.203-116.65 21.832-0.54688 0.13281-0.45703 1.0586 0.125 1v-0.003906c39.363-3.9805 78.445-10.348 117.04-19.066 2.0352-0.46094 1.6484-4.0352-0.51172-3.7617z"/>
  <path d="m358.83 346.79c-42.48 3.6641-85.215 13.992-126.86 22.859-2.2188 0.48047-1.3086 3.8984 0.93359 3.4492 41.906-8.3906 84.742-13.461 126.39-22.797 1.9141-0.4375 1.5664-3.6875-0.46094-3.5117z"/>
  <path d="m423.43 384.36c1.2266-1.5703 2.4414-3.1367 3.7734-4.668 4.6328-4.2031-2.7148-11.508-6.7852-6.8438-1.4805 1.7031-2.9609 3.4648-4.3438 5.2383l-0.10938-0.066406c-9.0508-4.9727-30.066-6.8828-29.859 7.3984-5.0469 8.4648-5.1992 18.977-0.40625 27.586 3.707 6.3555 10.211 10.57 17.527 11.367 7.3125 0.79687 14.57-1.9258 19.559-7.3359 3.957-4.4883 6.1953-10.234 6.3125-16.219 0.11719-5.9844-1.8906-11.816-5.668-16.457zm-7.918 28.977c-15.363 13.32-31.195-9.2656-25.359-24.004 0.37891-0.19141 0.68359-0.49609 0.88281-0.87109 4.2539-8.4297 13.059-8.1914 20.133-3.8242v-0.003906c-2.6055 3.7031-4.9805 7.5586-7.1094 11.551-1.2695-1.625-2.6484-3.1562-4.1367-4.5781-1.918-1.7969-5.8398-0.082031-4.7891 2.7617 1.6133 4.3125 3.8789 8.3398 5.875 12.492v-0.003907c0.80859 1.3516 2.2617 2.1836 3.8398 2.1914 1.5742 0.007812 3.0391-0.80859 3.8555-2.1562 3.0703-5.3633 6.1953-10.523 9.6211-15.539 2.5781 3.2773 3.7305 7.4492 3.2031 11.582-0.53125 4.1328-2.6953 7.8828-6.0156 10.402z"/>
  <path d="m359.51 393.76c-39.289 4.9062-78.242 12.195-116.65 21.82-0.53906 0.14062-0.45312 1.0664 0.13281 1.0078 39.355-4.0039 78.43-10.391 117.01-19.129 2.0547-0.4375 1.6719-4.0117-0.49609-3.6992z"/>
  <path d="m368.01 411.98c-42.48 3.6641-85.223 13.992-126.87 22.863-2.2188 0.48047-1.3086 3.8906 0.93359 3.4492 41.906-8.3906 84.742-13.461 126.39-22.805 1.9219-0.42969 1.5703-3.6797-0.46094-3.5078z"/>
  <path d="m435.42 446.59c1.2266-1.5703 2.4414-3.1367 3.7734-4.6602 4.625-4.2109-2.7227-11.516-6.7852-6.8438-1.4805 1.7031-2.9609 3.457-4.3516 5.2383l-0.10938-0.074219c-9.043-4.9648-30.059-6.8828-29.852 7.3984-5.0469 8.4609-5.2031 18.973-0.40625 27.578 3.707 6.3555 10.215 10.57 17.527 11.363 7.3125 0.79688 14.57-1.9297 19.559-7.3359 3.9531-4.4883 6.1875-10.234 6.3047-16.215 0.11719-5.9805-1.8867-11.809-5.6602-16.449zm-7.918 28.984c-15.363 13.32-31.203-9.2734-25.359-24.004 0.375-0.19531 0.67969-0.5 0.87891-0.87109 4.2539-8.4375 13.059-8.1992 20.133-3.8242l0.003906-0.003906c-2.6055 3.6992-4.9805 7.5547-7.1133 11.543-1.2656-1.6211-2.6484-3.1484-4.1328-4.5703-1.9258-1.7969-5.8477-0.089844-4.7891 2.7539 1.6055 4.3203 3.8789 8.3477 5.875 12.5v-0.003906c0.8125 1.3477 2.2734 2.1758 3.8477 2.1758 1.5742 0 3.0352-0.82813 3.8477-2.1758 3.0703-5.3555 6.1953-10.516 9.6211-15.504 2.5781 3.2773 3.7305 7.4492 3.2031 11.582-0.53125 4.1328-2.6992 7.8828-6.0156 10.402z"/>
  <path d="m371.5 455.96c-39.289 4.9141-78.242 12.203-116.65 21.832-0.53906 0.14062-0.45312 1.0586 0.13281 1v-0.003907c39.348-3.9805 78.422-10.348 117-19.059 2.0547-0.46875 1.6797-4.043-0.48828-3.7695z"/>
  <path d="m379.99 474.23c-42.48 3.6641-85.215 13.992-126.86 22.859-2.2188 0.48047-1.3086 3.8984 0.93359 3.4492 41.902-8.3594 84.742-13.465 126.38-22.801 1.9375-0.42969 1.582-3.6875-0.45312-3.5078z"/>
  <path d="m569.63 241.27c0.40625-5.75-9.0938-11.219-29.793-15.23-8.5312-1.6484-26.766-4.4414-29.652 1.9609h0.003906c-5.3906 22.062-9.4492 44.43-12.148 66.98-0.20703 1.6797 0.53906 2.0039 3.0469 2.8789-2.4922 9.3008-28.059 177.64-28.008 178.11 0.86719 7.8203 10.996 41.625 15.887 43.148 4.8906 1.5234 28.363-35.23 28.414-35.34 2.9609-4.0312 15.879-93.375 16.59-93.289 5.7266 0.73828 9.8633-6.0586 11.027-10.715 3.5078-14.094 21.82-98.77 24.633-138.5zm-79.441 271.2c-2.3555-3.3242-3.6758-7.2695-3.7969-11.344 1.6133 0.46484 9.4062 1.1016 10.789 1.1914-0.36328 0.51953-6.7031 12.168-6.9922 10.152zm11.219-16.73-2.7227 4.0703c-1.7969-0.4375-3.7461-0.40625-5.5781-0.66406-2.2188-0.31641-4.4414-0.85938-6.6602-1.207h-0.003906c-2.3516-6.4961-4.2656-13.141-5.7266-19.891 9.3906 3.2578 19.258 4.9258 29.199 4.9414zm-20.652-24.781c2.3086-15.539 20.816-140.98 27.867-172.46h-0.003906c10.094 3.3555 20.512 5.6328 31.082 6.793-1.8633 11.004-24.797 161.35-27.727 170.68-10.102-0.89844-21.129-4.0898-31.223-5.0078zm52.625-87.043c3.8789-21.668 20.082-110.89 22.562-124.32 0.18359-1.0195-4.9375-4.9375-6.3203-0.3125-2.8477 9.5078-8.2148 38.953-8.5391 39.219v0.003907c-11.363-3.3594-22.91-6.0625-34.586-8.0938 2.0703-15.332 5.0703-32.75 8.4375-49.75 0.70312-3.5312 1.2578-7.1836 4.8633-7.332h-0.003906c12.473 0.20312 24.801 2.6875 36.375 7.332 2.4062 0.87891 5.6172 3.1602 5.2461 5.6914-4.0156 27.105-18.477 139.2-28.035 137.56z"/>
 </g>
</svg>
